<?xml version="1.0" encoding="utf-8"?>
<!-- Generator: Adobe Illustrator 23.0.1, SVG Export Plug-In . SVG Version: 6.00 Build 0)  -->
<svg version="1.1"
	 id="svg2" inkscape:version="0.43" sodipodi:docbase="/home/sjoerd0/docs/images/stratego" sodipodi:docname="generaal.svg" sodipodi:version="0.32" xmlns:cc="http://web.resource.org/cc/" xmlns:dc="http://purl.org/dc/elements/1.1/" xmlns:inkscape="http://www.inkscape.org/namespaces/inkscape" xmlns:rdf="http://www.w3.org/1999/02/22-rdf-syntax-ns#" xmlns:sodipodi="http://inkscape.sourceforge.net/DTD/sodipodi-0.dtd" xmlns:svg="http://www.w3.org/2000/svg"
	 xmlns="http://www.w3.org/2000/svg" xmlns:xlink="http://www.w3.org/1999/xlink" x="0px" y="0px" viewBox="0 0 595.3 841.9"
	 style="enable-background:new 0 0 595.3 841.9;" xml:space="preserve">
<sodipodi:namedview  bordercolor="#666666" borderopacity="1.0" id="base" inkscape:current-layer="layer2" inkscape:cx="621.95325" inkscape:cy="576.45922" inkscape:pageopacity="0.0" inkscape:pageshadow="2" inkscape:window-height="946" inkscape:window-width="1264" inkscape:window-x="0" inkscape:window-y="0" inkscape:zoom="0.50259871" pagecolor="#ffffff">
	</sodipodi:namedview>
<g>
	<path d="M342.3,671.5l-2.3-29.9c-6.9-62.2,13.8-130.1,71.4-199.1c51.8-61,80.6-105.9,80.6-157.7c0-58.7-36.8-97.8-109.3-99
		c-41.4,0-87.5,13.8-116.3,35.7l-27.6-72.5c38-27.6,103.6-46,164.6-46c132.4,0,192.2,81.7,192.2,169.2c0,78.3-43.7,134.7-99,200.3
		c-50.6,59.9-69.1,110.5-65.6,169.2l1.2,29.9H342.3z M317,832.6c0-42.6,28.8-72.5,69.1-72.5c40.3,0,67.9,29.9,67.9,72.5
		c0,40.3-26.5,71.4-69.1,71.4C344.6,904,317,872.9,317,832.6z"/>
</g>
</svg>
